<svg width="48" height="48" viewBox="0 0 48 48" fill="none" xmlns="http://www.w3.org/2000/svg">
<g clip-path="url(#clip0)">
<path d="M24 48C37.2548 48 48 37.2548 48 24C48 10.7452 37.2548 0 24 0C10.7452 0 0 10.7452 0 24C0 37.2548 10.7452 48 24 48Z" fill="black"/>
<path fill-rule="evenodd" clip-rule="evenodd" d="M11 17.4913L13.4983 19.9896L23.5 9.98788L33.5017 19.9896L36 17.4913L23.5087 5.00001L23.5 5.00866L23.4913 5L11 17.4913Z" fill="white"/>
<path fill-rule="evenodd" clip-rule="evenodd" d="M11 30.4983L13.4983 28L23.5 38.0017L33.5017 28L36 30.4983L23.5087 42.9896L23.5 42.981L23.4913 42.9896L11 30.4983Z" fill="white"/>
</g>
<defs>
<clipPath id="clip0">
<rect width="48" height="48" fill="white"/>
</clipPath>
</defs>
</svg>
